 <svg
                width="18"
                height="19"
                viewBox="0 0 18 19"
                fill="none"
                xmlns="http://www.w3.org/2000/svg"
              >
                <path
                  fill-rule="evenodd"
                  clip-rule="evenodd"
                  d="M3.9375 7.71753C3.62684 7.71753 3.375 7.96937 3.375 8.28003V17.28C3.375 17.5907 3.62684 17.8425 3.9375 17.8425H14.0625C14.3732 17.8425 14.625 17.5907 14.625 17.28V8.28003C14.625 7.96937 14.3732 7.71753 14.0625 7.71753H11.8125C11.5018 7.71753 11.25 7.46569 11.25 7.15503C11.25 6.84437 11.5018 6.59253 11.8125 6.59253H14.0625C14.9945 6.59253 15.75 7.34805 15.75 8.28003V17.28C15.75 18.212 14.9945 18.9675 14.0625 18.9675H3.9375C3.00552 18.9675 2.25 18.212 2.25 17.28V8.28003C2.25 7.34805 3.00552 6.59253 3.9375 6.59253H6.1875C6.49816 6.59253 6.75 6.84437 6.75 7.15503C6.75 7.46569 6.49816 7.71753 6.1875 7.71753H3.9375Z"
                  fill="white"
                />
                <path
                  fill-rule="evenodd"
                  clip-rule="evenodd"
                  d="M8.60225 14.3028C8.82192 14.5224 9.17808 14.5224 9.39775 14.3028L12.7727 10.9278C12.9924 10.7081 12.9924 10.352 12.7727 10.1323C12.5531 9.91261 12.1969 9.91261 11.9773 10.1323L9.5625 12.547V2.65503C9.5625 2.34437 9.31066 2.09253 9 2.09253C8.68934 2.09253 8.4375 2.34437 8.4375 2.65503V12.547L6.02275 10.1323C5.80308 9.91261 5.44692 9.91261 5.22725 10.1323C5.00758 10.352 5.00758 10.7081 5.22725 10.9278L8.60225 14.3028Z"
                  fill="white"
                />
              </svg>