<svg width="16" height="17" viewBox="0 0 16 17" fill="none" xmlns="http://www.w3.org/2000/svg">
<path fill-rule="evenodd" clip-rule="evenodd" d="M10 13.4675C10 13.7437 9.77614 13.9675 9.5 13.9675L1.5 13.9675C1.22386 13.9675 1 13.7437 1 13.4675L1 4.46753C1 4.19139 1.22386 3.96753 1.5 3.96753L9.5 3.96753C9.77614 3.96753 10 4.19139 10 4.46753L10 6.46753C10 6.74367 10.2239 6.96753 10.5 6.96753C10.7761 6.96753 11 6.74367 11 6.46753L11 4.46753C11 3.6391 10.3284 2.96753 9.5 2.96753L1.5 2.96753C0.671574 2.96753 4.95181e-07 3.6391 4.5897e-07 4.46753L6.55671e-08 13.4675C2.93554e-08 14.296 0.671573 14.9675 1.5 14.9675L9.5 14.9675C10.3284 14.9675 11 14.296 11 13.4675L11 11.4675C11 11.1914 10.7761 10.9675 10.5 10.9675C10.2239 10.9675 10 11.1914 10 11.4675L10 13.4675Z" fill="black"/>
<path fill-rule="evenodd" clip-rule="evenodd" d="M15.8536 9.32108C16.0488 9.12582 16.0488 8.80924 15.8536 8.61398L12.8536 5.61398C12.6583 5.41871 12.3417 5.41871 12.1464 5.61398C11.9512 5.80924 11.9512 6.12582 12.1464 6.32108L14.2929 8.46753L5.5 8.46753C5.22386 8.46753 5 8.69139 5 8.96753C5 9.24367 5.22386 9.46753 5.5 9.46753L14.2929 9.46753L12.1464 11.614C11.9512 11.8092 11.9512 12.1258 12.1464 12.3211C12.3417 12.5163 12.6583 12.5163 12.8536 12.3211L15.8536 9.32108Z" fill="black"/>
</svg>
