<svg width="18" height="19" viewBox="0 0 18 19" fill="none" xmlns="http://www.w3.org/2000/svg">
<path d="M5.625 12.78C5.625 12.4694 5.87684 12.2175 6.1875 12.2175H8.4375C8.74816 12.2175 9 12.4694 9 12.78C9 13.0907 8.74816 13.3425 8.4375 13.3425H6.1875C5.87684 13.3425 5.625 13.0907 5.625 12.78Z" fill="#CACACA"/>
<path d="M5.625 10.53C5.625 10.2194 5.87684 9.96753 6.1875 9.96753H11.8125C12.1232 9.96753 12.375 10.2194 12.375 10.53C12.375 10.8407 12.1232 11.0925 11.8125 11.0925H6.1875C5.87684 11.0925 5.625 10.8407 5.625 10.53Z" fill="#CACACA"/>
<path d="M5.625 8.28003C5.625 7.96937 5.87684 7.71753 6.1875 7.71753H11.8125C12.1232 7.71753 12.375 7.96937 12.375 8.28003C12.375 8.59069 12.1232 8.84253 11.8125 8.84253H6.1875C5.87684 8.84253 5.625 8.59069 5.625 8.28003Z" fill="#CACACA"/>
<path d="M5.625 6.03003C5.625 5.71937 5.87684 5.46753 6.1875 5.46753H11.8125C12.1232 5.46753 12.375 5.71937 12.375 6.03003C12.375 6.34069 12.1232 6.59253 11.8125 6.59253H6.1875C5.87684 6.59253 5.625 6.34069 5.625 6.03003Z" fill="#CACACA"/>
<path d="M3.375 0.967529H14.625C15.8676 0.967529 16.875 1.97489 16.875 3.21753V16.7175C16.875 17.9602 15.8676 18.9675 14.625 18.9675H3.375C2.13236 18.9675 1.125 17.9602 1.125 16.7175V15.5925H2.25V16.7175C2.25 17.3388 2.75368 17.8425 3.375 17.8425H14.625C15.2463 17.8425 15.75 17.3389 15.75 16.7175V3.21753C15.75 2.59621 15.2463 2.09253 14.625 2.09253H3.375C2.75368 2.09253 2.25 2.59621 2.25 3.21753V4.34253H1.125V3.21753C1.125 1.97489 2.13236 0.967529 3.375 0.967529Z" fill="#CACACA"/>
<path d="M1.125 6.59253V6.03003C1.125 5.71937 1.37684 5.46753 1.6875 5.46753C1.99816 5.46753 2.25 5.71937 2.25 6.03003V6.59253H2.8125C3.12316 6.59253 3.375 6.84437 3.375 7.15503C3.375 7.46569 3.12316 7.71753 2.8125 7.71753H0.5625C0.25184 7.71753 0 7.46569 0 7.15503C0 6.84437 0.25184 6.59253 0.5625 6.59253H1.125Z" fill="#CACACA"/>
<path d="M1.125 9.96753V9.40503C1.125 9.09437 1.37684 8.84253 1.6875 8.84253C1.99816 8.84253 2.25 9.09437 2.25 9.40503V9.96753H2.8125C3.12316 9.96753 3.375 10.2194 3.375 10.53C3.375 10.8407 3.12316 11.0925 2.8125 11.0925H0.5625C0.25184 11.0925 0 10.8407 0 10.53C0 10.2194 0.25184 9.96753 0.5625 9.96753H1.125Z" fill="#CACACA"/>
<path d="M1.125 13.3425V12.78C1.125 12.4694 1.37684 12.2175 1.6875 12.2175C1.99816 12.2175 2.25 12.4694 2.25 12.78V13.3425H2.8125C3.12316 13.3425 3.375 13.5944 3.375 13.905C3.375 14.2157 3.12316 14.4675 2.8125 14.4675H0.5625C0.25184 14.4675 0 14.2157 0 13.905C0 13.5944 0.25184 13.3425 0.5625 13.3425H1.125Z" fill="#CACACA"/>
</svg>
