<svg width="18" height="19" viewBox="0 0 18 19" fill="none" xmlns="http://www.w3.org/2000/svg">
<path fill-rule="evenodd" clip-rule="evenodd" d="M12.9375 17.8425C13.2482 17.8425 13.5 17.5907 13.5 17.28V4.01303L17.0398 7.55278C17.2594 7.77245 17.6156 7.77245 17.8352 7.55278C18.0549 7.33311 18.0549 6.97695 17.8352 6.75728L13.3352 2.25728C13.1156 2.03761 12.7594 2.03761 12.5398 2.25728L8.03975 6.75728C7.82008 6.97695 7.82008 7.33311 8.03975 7.55278C8.25942 7.77245 8.61558 7.77245 8.83525 7.55278L12.375 4.01303V17.28C12.375 17.5907 12.6268 17.8425 12.9375 17.8425Z" fill="#333333"/>
<path fill-rule="evenodd" clip-rule="evenodd" d="M5.0625 2.09253C5.37316 2.09253 5.625 2.34437 5.625 2.65503V15.922L9.16475 12.3823C9.38442 12.1626 9.74058 12.1626 9.96025 12.3823C10.1799 12.602 10.1799 12.9581 9.96025 13.1778L5.46025 17.6778C5.24058 17.8974 4.88442 17.8974 4.66475 17.6778L0.164752 13.1778C-0.0549175 12.9581 -0.0549175 12.602 0.164752 12.3823C0.384422 12.1626 0.740579 12.1626 0.960248 12.3823L4.5 15.922V2.65503C4.5 2.34437 4.75184 2.09253 5.0625 2.09253Z" fill="#333333"/>
</svg>
